<svg width="3524" height="569" xmlns="http://www.w3.org/2000/svg" xmlns:xlink="http://www.w3.org/1999/xlink" xml:space="preserve" overflow="hidden"><g transform="translate(316 -572)"><g><path d="M-175.658 869.942C-178.383 869.942-180.139 870.388-180.925 871.281-181.71 872.174-182.103 874.306-182.103 877.676L-182.103 950.723C-182.103 954.125-181.251 956.372-179.547 957.464-177.842 958.556-159.072 959.102-123.236 959.102-102.745 959.102-87.7261 958.148-78.179 956.239-68.6319 954.33-61.6517 949.826-57.2384 942.727-52.8252 935.628-50.6186 925.833-50.6186 913.34-50.6186 902.457-52.6898 893.456-56.8323 886.336-60.9747 879.216-65.6168 874.703-70.7585 872.799-75.9002 870.894-87.2337 869.942-104.759 869.942ZM2034.65 743.829C2024.39 743.829 2017.09 746.519 2012.78 751.901 2008.46 757.282 2003.59 769.559 1998.18 788.731L1986.06 829.424C1984.98 833.21 1984.03 836.948 1983.23 840.638 1982.42 844.327 1982.02 846.79 1982.02 848.028 1982.02 850.246 1982.54 851.731 1983.58 852.484 1984.62 853.237 1988.04 853.614 1993.83 853.614L2074.62 853.614C2079.57 853.614 2082.52 853.133 2083.48 852.17 2084.45 851.208 2084.93 850.042 2084.93 848.672 2084.93 847.348 2084.43 843.651 2083.42 837.581L2079.93 827.292 2068.65 787.707C2063.58 767.998 2059.18 755.757 2055.47 750.986 2051.75 746.214 2044.81 743.829 2034.65 743.829ZM-128.177 743.829C-161.704 743.829-179.073 744.543-180.285 745.97-181.497 747.398-182.103 749.764-182.103 753.067L-182.103 818.594C-182.103 821.289-181.856 822.858-181.363 823.301-180.869 823.744-179.111 823.965-176.087 823.965L-106.263 823.965C-90.3982 823.965-80.4807 823.08-76.5106 821.308-72.5405 819.537-68.6291 815.57-64.7764 809.406-60.9238 803.243-58.9974 794.561-58.9974 783.36-58.9974 771.582-60.8958 763.109-64.6925 757.943-68.4892 752.777-74.4645 749.133-82.6185 747.011-90.7725 744.89-105.959 743.829-128.177 743.829ZM1265.73 741.895C1234.77 741.895 1218.05 742.28 1215.55 743.048 1213.05 743.817 1211.8 745.438 1211.8 747.911L1211.8 834.493C1211.8 837.666 1211.96 839.426 1212.27 839.773 1212.58 840.12 1214 840.294 1216.53 840.294L1283.35 840.294C1299.03 840.294 1308.85 839.273 1312.81 837.232 1316.77 835.191 1321.16 829.424 1325.97 819.932 1330.78 810.44 1333.19 799.037 1333.19 785.723 1333.19 773.867 1331.36 764.47 1327.7 757.533 1324.05 750.597 1317.09 746.256 1306.82 744.512 1296.56 742.767 1282.86 741.895 1265.73 741.895ZM947.904 741.465C911.734 741.465 888.189 751.267 877.27 770.869 866.351 790.471 860.892 817.695 860.892 852.54 860.892 890.5 866.147 918.037 876.658 935.15 887.168 952.264 909.198 960.821 942.747 960.821 961.103 960.821 976.274 959.003 988.261 955.366 1000.25 951.729 1008.76 945.659 1013.81 937.156 1018.86 928.653 1023.03 917.852 1026.32 904.753 1029.62 891.655 1031.26 873.534 1031.26 850.391 1031.26 821.562 1028.53 798.88 1023.06 782.345 1017.6 765.809 1009 754.862 997.279 749.504 985.556 744.145 969.097 741.465 947.904 741.465ZM342.331 741.465C306.161 741.465 282.616 751.267 271.697 770.869 260.778 790.471 255.319 817.695 255.319 852.54 255.319 890.5 260.574 918.037 271.085 935.15 281.595 952.264 303.625 960.821 337.174 960.821 355.53 960.821 370.701 959.003 382.688 955.366 394.674 951.729 403.192 945.659 408.241 937.156 413.289 928.653 417.46 917.852 420.752 904.753 424.044 891.655 425.69 873.534 425.69 850.391 425.69 821.562 422.957 798.88 417.491 782.345 412.025 765.809 403.43 754.862 391.706 749.504 379.983 744.145 363.524 741.465 342.331 741.465ZM91.6796 697.852 118.965 697.852C123.011 697.852 125.67 698.982 126.941 701.243 128.212 703.503 128.848 705.954 128.848 708.594L128.848 986.817C128.848 998.132 123.047 1003.79 111.445 1003.79L85.4492 1003.79C81.7341 1003.79 79.2299 1002.63 77.9363 1000.3 76.6428 997.974 75.996 995.485 75.996 992.833L75.996 714.395C75.996 703.367 81.2239 697.852 91.6796 697.852ZM-124.095 697.852C-87.9745 697.852-62.6118 699.868-48.0068 703.9-33.402 707.931-22.6307 715.882-15.693 727.752-8.75539 739.622-5.28652 754.649-5.28652 772.833-5.28652 785.755-6.78874 796.835-9.7932 806.073-12.7977 815.311-16.0186 822.994-19.4562 829.122L-23.753 836.675C-24.3327 837.691-24.6225 838.897-24.6225 840.294-24.6225 841.894-21.1755 847.231-14.2814 856.306-7.38741 865.381-2.55345 874.529 0.220534 883.751 2.99443 892.972 4.38145 903.265 4.38145 914.63 4.38145 937.454-0.489458 956.402-10.2313 971.471-19.9731 986.54-33.214 995.98-49.9539 999.792-66.6938 1003.6-91.2643 1005.51-123.665 1005.51-139.08 1005.51-154.677 1005.33-170.454 1004.97-186.232 1004.61-203.134 1004.08-221.161 1003.36-223.692 1003.36-226.695 1002.27-230.171 1000.08-233.646 997.897-235.384 993.618-235.384 987.247L-235.384 712.676C-235.384 707.74-233.848 704.393-230.775 702.636-227.702 700.879-224.378 700.001-220.802 700.001-204.098 699.331-187.156 698.806-169.978 698.425-152.799 698.043-137.505 697.852-124.095 697.852ZM3001.09 696.778 3032.25 696.778C3067.36 696.778 3087.45 698.131 3092.53 700.836 3097.6 703.542 3102.03 708.73 3105.83 716.401 3109.63 724.072 3111.52 730.564 3111.52 735.88 3111.52 739.111 3110.4 741.602 3108.15 743.352 3105.9 745.102 3103.3 745.977 3100.36 745.977 3087.87 745.402 3073.43 744.972 3057.05 744.686 3040.67 744.401 3024.81 744.258 3009.47 744.258L2978.96 744.258C2963.24 744.258 2954.16 744.643 2951.7 745.413 2949.25 746.183 2948.03 748.734 2948.03 753.067L2948.03 821.387C2948.03 823.37 2948.22 824.51 2948.59 824.808 2948.97 825.106 2950.21 825.255 2952.32 825.255L3087.68 825.255C3094.84 825.255 3098.42 828.764 3098.42 835.782 3098.42 840.356 3096.33 846.428 3092.15 853.997 3087.97 861.565 3083.65 866.509 3079.18 868.828 3074.72 871.146 3067.59 872.305 3057.81 872.305L2952.75 872.305C2950.64 872.305 2949.32 872.538 2948.8 873.004 2948.29 873.469 2948.03 875.17 2948.03 878.106L2948.03 948.36C2948.03 952.14 2948.5 954.517 2949.43 955.492 2950.37 956.466 2952.62 958.386 2956.19 961.251 2958.48 964.115 2964.46 964.187 2974.13 961.465 2983.8 958.744 2994.36 957.383 3005.82 957.383 3024.79 957.383 3041.24 957.217 3055.19 956.883 3069.13 956.55 3086.99 955.857 3108.76 954.805 3115.04 954.805 3118.18 957.956 3118.18 964.258 3118.18 969.748 3115.16 977.194 3109.1 986.595 3103.04 995.997 3095.52 1001.36 3086.54 1002.67 3077.55 1003.99 3052.15 1004.65 3010.33 1004.65 2990.81 1004.65 2972.43 1004.58 2955.2 1004.43 2937.97 1004.29 2922.53 1003.93 2908.9 1003.36 2906.41 1003.36 2903.43 1002.27 2899.96 1000.08 2896.48 997.897 2894.75 993.618 2894.75 987.247L2894.75 712.247C2894.75 707.023 2896.28 703.533 2899.36 701.776 2902.43 700.02 2905.88 699.141 2909.69 699.141 2929.11 698.331 2945.37 697.735 2958.48 697.352 2971.58 696.969 2985.79 696.778 3001.09 696.778ZM1264.87 696.348C1298.58 696.348 1323.53 698.307 1339.73 702.225 1355.92 706.142 1367.83 714.419 1375.46 727.054 1383.09 739.69 1386.9 756.596 1386.9 777.774 1386.9 798.406 1383.98 815.238 1378.13 828.271 1372.28 841.303 1366.98 850.779 1362.23 856.697 1357.48 862.616 1355.1 867.532 1355.1 871.446 1355.1 874.539 1355.65 878.08 1356.75 882.071 1357.84 886.061 1359.94 892.765 1363.05 902.182L1396.52 988.861C1397.27 990.62 1397.64 992.231 1397.64 993.692 1397.64 996.333 1396.75 998.676 1394.96 1000.72 1393.17 1002.77 1390.55 1003.79 1387.12 1003.79L1376.59 1003.79C1364.91 1003.79 1355.87 1001.6 1349.47 997.225 1343.07 992.849 1338.01 984.883 1334.3 973.329L1310.63 904.102C1307.37 898.863 1303.67 894.581 1299.55 891.257 1295.42 887.932 1288.09 886.27 1277.55 886.27L1217.39 886.27C1215.08 886.27 1213.64 886.537 1213.08 887.071 1212.51 887.605 1212.23 889.271 1212.23 892.071L1212.23 989.825C1212.23 994.536 1211.26 998.041 1209.33 1000.34 1207.39 1002.64 1203.92 1003.79 1198.91 1003.79L1169.26 1003.79C1165.58 1003.79 1163.08 1002.84 1161.77 1000.95 1160.47 999.062 1159.81 996.498 1159.81 993.262L1159.81 709.454C1159.81 702.579 1163.58 699.141 1171.11 699.141L1216.11 697.275C1223.36 696.991 1231.76 696.765 1241.31 696.598 1250.86 696.432 1258.71 696.348 1264.87 696.348ZM657.148 696.348C709.346 696.348 738.73 697.539 745.298 699.92 751.867 702.301 757.079 707.468 760.935 715.421 764.791 723.373 766.719 730.193 766.719 735.88 766.719 738.335 765.649 740.631 763.511 742.77 761.373 744.908 758.79 745.977 755.762 745.977L754.352 745.977C745.219 745.398 732.694 744.895 716.778 744.468 700.861 744.042 684.207 743.829 666.816 743.829 632.741 743.829 614.698 744.286 612.686 745.2 610.674 746.114 609.668 748.737 609.668 753.067L609.668 830.626C609.668 832.593 609.84 833.729 610.185 834.035 610.529 834.34 611.789 834.493 613.965 834.493L745.449 834.493C752.897 834.493 756.621 838.002 756.621 845.02 756.621 849.154 754.369 855.37 749.863 863.668 745.359 871.966 740.771 877.092 736.102 879.044 731.432 880.997 724.737 881.973 716.016 881.973L614.824 881.973C612.32 881.973 610.834 882.232 610.368 882.75 609.901 883.268 609.668 884.943 609.668 887.774L609.668 982.735C609.668 990.498 608.002 995.948 604.669 999.085 601.337 1002.22 596.057 1003.79 588.828 1003.79L564.551 1003.79C561.209 1003.79 558.87 1002.72 557.533 1000.58 556.196 998.441 555.527 996.145 555.527 993.692L555.527 710.313C555.527 706.289 556.915 703.278 559.692 701.28 562.468 699.281 565.936 698.282 570.096 698.282 586.671 697.613 602.049 697.123 616.232 696.813 630.415 696.503 644.054 696.348 657.148 696.348ZM2037.66 695.919C2049.96 695.919 2061.05 697.04 2070.95 699.282 2080.85 701.525 2088.86 706.52 2094.98 714.268 2101.1 722.015 2106.04 731.659 2109.78 743.198L2121.02 777.771 2179.28 980.822C2180.56 984.671 2181.37 987.475 2181.73 989.234 2182.08 990.993 2182.25 992.766 2182.25 994.551 2182.25 1000.71 2178.67 1003.79 2171.51 1003.79L2156.04 1003.79C2145.96 1003.79 2138.34 1001.75 2133.17 997.658 2128 993.571 2124.08 986.638 2121.41 976.86L2101.4 908.355C2100.03 904.249 2098.32 901.511 2096.27 900.141 2094.21 898.771 2089.65 898.087 2082.57 898.087L1981.37 898.087C1975.13 898.087 1970.98 898.851 1968.92 900.381 1966.87 901.911 1964.93 905.193 1963.11 910.229L1943.08 978.542C1940.71 987.181 1936.73 993.548 1931.13 997.645 1925.52 1001.74 1917.35 1003.79 1906.61 1003.79L1894.79 1003.79C1891.59 1003.79 1889.17 1002.67 1887.55 1000.43 1885.93 998.184 1885.12 995.796 1885.12 993.262 1885.12 991.266 1885.48 989.415 1886.2 987.71 1886.91 986.005 1887.92 982.775 1889.21 978.022L1950.04 777.361C1956.45 757.032 1962.74 740.77 1968.92 728.577 1975.09 716.383 1983.58 707.892 1994.4 703.102 2005.21 698.313 2019.63 695.919 2037.66 695.919ZM2291.54 695.489C2313.39 695.489 2328.22 698.802 2336.03 705.427 2343.83 712.053 2351.26 724.535 2358.29 742.875L2441.01 944.798C2444 951.293 2446.4 955.444 2448.2 957.251 2450.01 959.058 2452.79 959.962 2456.54 959.962 2459.76 959.962 2461.82 959.066 2462.71 957.276 2463.61 955.486 2464.06 952.37 2464.06 947.93L2464.06 721.915C2464.06 713.932 2465.93 707.926 2469.69 703.896 2473.44 699.867 2480.52 697.852 2490.91 697.852L2502.73 697.852C2507.02 697.852 2510.03 698.911 2511.75 701.028 2513.47 703.145 2514.33 705.667 2514.33 708.594L2514.33 956.309C2514.33 972.781 2510.71 985.242 2503.46 993.692 2496.22 1002.14 2481.29 1006.37 2458.69 1006.37 2438.76 1006.37 2424.73 1003.36 2416.6 997.341 2408.48 991.323 2400.86 979.228 2393.77 961.056L2310.83 759.019C2307.57 751.732 2304.99 747.128 2303.07 745.207 2301.14 743.286 2298.16 742.325 2294.11 742.325 2290.81 742.325 2288.77 742.788 2287.98 743.713 2287.2 744.638 2286.81 746.897 2286.81 750.489L2286.81 979.297C2286.81 988.54 2284.54 994.933 2280 998.476 2275.46 1002.02 2268.2 1003.79 2258.24 1003.79L2247.49 1003.79C2240.91 1003.79 2237.61 1000.14 2237.61 992.833L2237.61 748.34C2237.61 725.847 2242.01 711.415 2250.79 705.044 2259.58 698.674 2273.16 695.489 2291.54 695.489ZM1532.85 695.489C1552.55 695.489 1566.49 698.378 1574.67 704.155 1582.86 709.932 1589.2 723.853 1593.7 745.917L1632.4 925.143C1633.66 931.072 1634.96 934.705 1636.3 936.042 1637.63 937.379 1640.39 938.047 1644.57 938.047 1649.05 938.047 1651.95 937.438 1653.26 936.218 1654.57 934.998 1655.91 931.166 1657.28 924.72L1698.48 745.47C1703.08 724.46 1710.16 710.878 1719.71 704.722 1729.26 698.567 1744.32 695.489 1764.88 695.489 1784.83 695.489 1799.25 698.416 1808.15 704.271 1817.06 710.125 1822.71 722.868 1825.13 742.499L1852.54 992.648C1852.54 992.905 1852.61 993.32 1852.75 993.893 1852.75 997.416 1851.6 999.946 1849.29 1001.48 1846.99 1003.02 1844.49 1003.79 1841.8 1003.79L1829.55 1003.79C1819.15 1003.79 1811.6 1001.79 1806.89 997.779 1802.19 993.772 1799.37 986.26 1798.44 975.242L1773.3 753.537C1772.81 748.531 1771.79 745.339 1770.22 743.961 1768.65 742.584 1765.51 741.895 1760.8 741.895 1756.25 741.895 1753.15 742.766 1751.51 744.509 1749.86 746.251 1748.4 749.869 1747.12 755.363L1705.66 935.053C1702.14 949.114 1698.38 959.429 1694.38 965.997 1690.37 972.566 1683.89 977.212 1674.94 979.937 1665.99 982.662 1655.29 984.024 1642.85 984.024 1631.91 984.024 1621.68 982.707 1612.15 980.073 1602.62 977.439 1595.86 972.578 1591.88 965.49 1587.9 958.403 1584.75 949.168 1582.42 937.786L1544.09 755.296C1542.85 749.464 1541.36 745.772 1539.6 744.221 1537.85 742.671 1534.89 741.895 1530.7 741.895 1525.71 741.895 1522.52 742.724 1521.15 744.383 1519.78 746.041 1518.55 750.796 1517.46 758.646L1491.45 977.263C1489.91 987.453 1486.74 994.421 1481.95 998.168 1477.15 1001.92 1469.63 1003.79 1459.38 1003.79L1447.99 1003.79C1441.69 1003.79 1438.54 1000.2 1438.54 993.007L1468.4 752.134C1470.47 735.689 1473.44 723.866 1477.32 716.663 1481.2 709.46 1487.54 704.13 1496.33 700.674 1505.13 697.217 1517.3 695.489 1532.85 695.489ZM2738.05 694.63C2761.31 694.63 2780.14 695.62 2794.54 697.602 2808.94 699.584 2819.14 705.08 2825.12 714.091 2831.1 723.102 2834.09 730.938 2834.09 737.598 2834.09 740.076 2833.42 742.45 2832.08 744.72 2830.75 746.99 2828.27 748.126 2824.64 748.126L2822.96 748.126C2805.65 745.946 2791.76 744.434 2781.28 743.59 2770.81 742.747 2758.04 742.325 2742.99 742.325 2716.47 742.325 2696.28 745.129 2682.42 750.737 2668.57 756.346 2658.41 767.526 2651.94 784.278 2645.47 801.03 2642.23 823.354 2642.23 851.251 2642.23 891.411 2647.67 919.283 2658.56 934.867 2669.44 950.451 2697.3 958.243 2742.14 958.243 2757.35 958.243 2774.2 957.185 2792.67 955.069 2811.15 952.953 2822.16 951.791 2825.69 951.583L2826.14 951.583C2831.72 951.583 2834.52 954.519 2834.52 960.391L2834.52 961.207C2833.22 971.963 2827.97 982.322 2818.79 992.284 2809.6 1002.25 2779.33 1007.23 2727.96 1007.23 2671.61 1007.23 2634.14 994.809 2615.55 969.972 2596.96 945.135 2587.66 906.707 2587.66 854.688 2587.66 823.171 2590.79 797.784 2597.04 778.526 2603.28 759.268 2611.86 743.249 2622.78 730.466 2633.69 717.684 2648.96 708.516 2668.59 702.961 2688.21 697.407 2711.37 694.63 2738.05 694.63ZM949.622 694.2C978.1 694.2 1001 697.396 1018.32 703.787 1035.63 710.179 1048.12 718.112 1055.78 727.588 1063.43 737.063 1070.35 751.309 1076.55 770.323 1082.74 789.338 1085.83 815.455 1085.83 848.672 1085.83 900.233 1076.1 939.799 1056.63 967.372 1037.15 994.945 999.195 1008.73 942.747 1008.73 908.766 1008.73 882.33 1003.73 863.438 993.721 844.546 983.714 830.519 967.737 821.356 945.792 812.192 923.847 807.611 893.192 807.611 853.829 807.611 803.305 817.581 764.069 837.523 736.121 857.464 708.174 894.83 694.2 949.622 694.2ZM344.049 694.2C372.527 694.2 395.425 697.396 412.742 703.787 430.06 710.179 442.546 718.112 450.202 727.588 457.858 737.063 464.782 751.309 470.973 770.323 477.165 789.338 480.26 815.455 480.26 848.672 480.26 900.233 470.525 939.799 451.053 967.372 431.582 994.945 393.622 1008.73 337.174 1008.73 303.193 1008.73 276.757 1003.73 257.865 993.721 238.973 983.714 224.946 967.737 215.783 945.792 206.619 923.847 202.038 893.192 202.038 853.829 202.038 803.305 212.008 764.069 231.95 736.121 251.891 708.174 289.258 694.2 344.049 694.2Z" stroke="#CFFF00" stroke-width="14" stroke-linecap="butt" stroke-linejoin="round" stroke-miterlimit="10" stroke-opacity="1" fill="#FFFFFF" fill-rule="evenodd" fill-opacity="1"/><text fill="#000000" fill-opacity="0" font-family="Arial,Arial_MSFontService,sans-serif" font-size="314.531" direction="ltr" writing-mode="lr-tb" x="-235.384" y="969.415">BIOFORMANCE</text></g></g></svg>